<svg width="25" height="25" viewBox="0 0 25 25" fill="none" xmlns="http://www.w3.org/2000/svg">
<path d="M21.755 12.8847C21.5977 14.5869 20.9589 16.2091 19.9133 17.5615C18.8677 18.9139 17.4585 19.9405 15.8507 20.5213C14.2429 21.102 12.503 21.2129 10.8345 20.8408C9.16605 20.4688 7.63802 19.6293 6.42925 18.4205C5.22048 17.2117 4.38097 15.6837 4.00894 14.0152C3.6369 12.3467 3.74774 10.6068 4.32849 8.99902C4.90923 7.39124 5.93586 5.98209 7.28824 4.93648C8.64062 3.89087 10.2628 3.25203 11.965 3.09473C10.9684 4.44299 10.4889 6.10418 10.6136 7.77614C10.7382 9.44811 11.4589 11.0198 12.6444 12.2053C13.83 13.3909 15.4017 14.1115 17.0736 14.2362C18.7456 14.3609 20.4068 13.8813 21.755 12.8847Z" stroke="#3035A6" stroke-width="2" stroke-linecap="round" stroke-linejoin="round"/>
</svg>
