<svg width="323" height="213" viewBox="0 0 323 213" fill="none" xmlns="http://www.w3.org/2000/svg">
<rect width="323" height="213" fill="none"/>
<path d="M35.54 16H278.22C280.008 16 281.722 16.7101 282.986 17.9741C284.25 19.2381 284.96 20.9524 284.96 22.74V171.49C284.96 175.354 283.425 179.06 280.693 181.793C277.96 184.525 274.254 186.06 270.39 186.06H42.39C38.5258 186.06 34.8199 184.525 32.0875 181.793C29.3551 179.06 27.82 175.354 27.82 171.49V23.75C27.82 21.6946 28.6365 19.7233 30.0899 18.2699C31.5433 16.8165 33.5146 16 35.57 16H35.54Z" fill="#263238"/>
<path d="M17.04 173.48H295.66V174.64C295.66 178.279 294.215 181.768 291.642 184.341C289.069 186.914 285.579 188.36 281.94 188.36H30.72C27.0812 188.36 23.5915 186.914 21.0185 184.341C18.4455 181.768 17 178.279 17 174.64V173.48H17.04Z" fill="#263238"/>
<path d="M277.33 22.75H34.69V166.36H277.33V22.75Z" fill="#455A64"/>
<path d="M131.02 173.48L134.48 178.98H183.13L186.34 173.48H131.02Z" fill="#455A64"/>
<path d="M266.19 32.3201H42.79V166.31H266.19V32.3201Z" fill="white"/>
<path d="M52.32 38.93C52.32 39.3022 52.2095 39.6661 52.0025 39.9755C51.7954 40.2848 51.5012 40.5258 51.1571 40.6678C50.813 40.8098 50.4345 40.8464 50.0695 40.7731C49.7046 40.6997 49.3696 40.5197 49.1071 40.2557C48.8446 39.9918 48.6663 39.6559 48.5949 39.2906C48.5235 38.9252 48.5622 38.5469 48.706 38.2035C48.8498 37.8602 49.0923 37.5673 49.4028 37.3619C49.7133 37.1566 50.0778 37.048 50.45 37.05C50.6964 37.0499 50.9404 37.0987 51.1679 37.1933C51.3955 37.2879 51.6021 37.4265 51.7758 37.6012C51.9496 37.7759 52.0871 37.9832 52.1805 38.2113C52.2739 38.4393 52.3213 38.6835 52.32 38.93Z" fill="#263238"/>
<path d="M59.97 38.93C59.97 39.3022 59.8595 39.6661 59.6525 39.9755C59.4455 40.2848 59.1512 40.5258 58.8071 40.6678C58.463 40.8098 58.0845 40.8464 57.7196 40.7731C57.3546 40.6997 57.0196 40.5197 56.7571 40.2557C56.4946 39.9918 56.3163 39.6559 56.2449 39.2906C56.1735 38.9252 56.2122 38.5469 56.356 38.2035C56.4998 37.8602 56.7424 37.5673 57.0528 37.3619C57.3633 37.1566 57.7278 37.048 58.1 37.05C58.3464 37.0499 58.5904 37.0987 58.818 37.1933C59.0455 37.2879 59.2521 37.4265 59.4259 37.6012C59.5996 37.7759 59.7372 37.9832 59.8306 38.2113C59.9239 38.4393 59.9713 38.6835 59.97 38.93Z" fill="#263238"/>
<path d="M67.62 38.9301C67.62 39.301 67.5102 39.6637 67.3045 39.9724C67.0988 40.2811 66.8063 40.5221 66.464 40.6649C66.1216 40.8078 65.7446 40.8462 65.3805 40.7753C65.0164 40.7043 64.6814 40.5272 64.4177 40.2663C64.154 40.0054 63.9734 39.6723 63.8986 39.3089C63.8238 38.9456 63.8582 38.5682 63.9974 38.2244C64.1366 37.8805 64.3745 37.5855 64.681 37.3766C64.9875 37.1676 65.349 37.054 65.72 37.05C65.9689 37.046 66.2161 37.0918 66.4472 37.1846C66.6782 37.2774 66.8883 37.4154 67.0653 37.5905C67.2423 37.7657 67.3825 37.9743 67.4777 38.2043C67.573 38.4344 67.6214 38.6811 67.62 38.9301Z" fill="#263238"/>
<path d="M284.96 173.6H27.79V174.42H284.96V173.6Z" fill="#455A64"/>
<path d="M208.1 108.91C208.1 109.05 184.29 109.17 154.93 109.17C125.57 109.17 101.72 109.05 101.72 108.91C101.72 108.77 125.52 108.65 154.89 108.65C184.26 108.65 208.1 108.76 208.1 108.91Z" fill="#263238"/>
<path d="M182.24 112.57C182.24 112.72 169.49 112.83 153.76 112.83C138.03 112.83 125.27 112.72 125.27 112.57C125.27 112.42 138.02 112.31 153.72 112.31C169.42 112.31 182.24 112.43 182.24 112.57Z" fill="#263238"/>
<path d="M118.68 124.97H59.05V163.86H118.68V124.97Z" fill="#5E64FF"/>
<path d="M67.72 132.69C67.7219 133.162 67.5839 133.625 67.3234 134.018C67.0629 134.412 66.6915 134.72 66.2561 134.903C65.8207 135.086 65.3409 135.136 64.8772 135.047C64.4135 134.957 63.9867 134.732 63.6506 134.4C63.3146 134.069 63.0844 133.645 62.9891 133.182C62.8939 132.72 62.9378 132.239 63.1153 131.802C63.2928 131.364 63.596 130.989 63.9866 130.723C64.3772 130.458 64.8377 130.314 65.31 130.31C65.6247 130.307 65.9368 130.367 66.2284 130.485C66.5201 130.604 66.7855 130.778 67.0094 130.999C67.2333 131.221 67.4113 131.484 67.5333 131.774C67.6552 132.064 67.7187 132.375 67.72 132.69Z" fill="#FAFAFA"/>
<path d="M115.45 134.7L113.45 132.77L111.63 134.64L111.57 129.07H115.36L115.45 134.7ZM113.45 132.53L113.51 132.59L115.24 134.28L115.19 129.2H111.74V134.2L113.45 132.53Z" fill="#FAFAFA"/>
<path d="M100.43 131.42C100.43 131.56 93.88 131.68 85.8 131.68C77.72 131.68 71.17 131.56 71.17 131.42C71.17 131.28 77.72 131.16 85.8 131.16C93.88 131.16 100.43 131.31 100.43 131.42Z" fill="#FAFAFA"/>
<path d="M82.45 134.7C80.5817 134.957 78.694 135.044 76.81 134.96C74.926 135.044 73.0382 134.957 71.17 134.7C73.0377 134.437 74.926 134.35 76.81 134.44C78.694 134.35 80.5822 134.437 82.45 134.7Z" fill="#FAFAFA"/>
<path d="M184.74 124.97H125.11V163.86H184.74V124.97Z" fill="#455A64"/>
<path d="M133.72 132.69C133.72 133.163 133.58 133.625 133.317 134.018C133.055 134.411 132.681 134.717 132.245 134.898C131.808 135.079 131.327 135.126 130.864 135.034C130.4 134.942 129.974 134.714 129.64 134.38C129.306 134.046 129.078 133.62 128.986 133.156C128.894 132.693 128.941 132.212 129.122 131.775C129.303 131.339 129.609 130.965 130.002 130.703C130.395 130.44 130.857 130.3 131.33 130.3C131.964 130.3 132.572 130.552 133.02 131C133.468 131.448 133.72 132.056 133.72 132.69Z" fill="#FAFAFA"/>
<path d="M181.51 134.7L179.51 132.77L177.72 134.64L177.66 129.07H181.45L181.51 134.7ZM179.51 132.53L179.58 132.59L181.3 134.28L181.25 129.2H177.81V134.2L179.51 132.53Z" fill="#FAFAFA"/>
<path d="M166.49 131.42C166.49 131.56 159.94 131.68 151.86 131.68C143.78 131.68 137.23 131.56 137.23 131.42C137.23 131.28 143.78 131.16 151.86 131.16C159.94 131.16 166.49 131.31 166.49 131.42Z" fill="#FAFAFA"/>
<path d="M148.51 134.7C146.642 134.957 144.754 135.044 142.87 134.96C140.986 135.044 139.098 134.957 137.23 134.7C139.098 134.437 140.986 134.35 142.87 134.44C144.754 134.35 146.642 134.437 148.51 134.7Z" fill="#FAFAFA"/>
<path d="M250.68 124.97H191.05V163.86H250.68V124.97Z" fill="#5E64FF"/>
<path d="M199.72 132.69C199.72 133.163 199.58 133.625 199.317 134.018C199.055 134.411 198.681 134.717 198.245 134.898C197.808 135.079 197.327 135.126 196.864 135.034C196.4 134.942 195.974 134.714 195.64 134.38C195.306 134.046 195.078 133.62 194.986 133.156C194.894 132.693 194.941 132.212 195.122 131.775C195.303 131.339 195.609 130.965 196.002 130.703C196.395 130.44 196.857 130.3 197.33 130.3C197.964 130.3 198.572 130.552 199.02 131C199.468 131.448 199.72 132.056 199.72 132.69Z" fill="#FAFAFA"/>
<path d="M247.45 134.7L245.45 132.77L243.62 134.64L243.56 129.07H247.35L247.45 134.7ZM245.45 132.53L245.51 132.59L247.24 134.28L247.18 129.2H243.74L243.79 134.2L245.45 132.53Z" fill="#FAFAFA"/>
<path d="M232.43 131.42C232.43 131.56 225.88 131.68 217.81 131.68C209.74 131.68 203.18 131.56 203.18 131.42C203.18 131.28 209.72 131.16 217.81 131.16C225.9 131.16 232.43 131.31 232.43 131.42Z" fill="#FAFAFA"/>
<path d="M214.45 134.7C212.585 134.957 210.701 135.044 208.82 134.96C206.936 135.044 205.048 134.957 203.18 134.7C205.048 134.437 206.936 134.35 208.82 134.44C210.701 134.35 212.586 134.437 214.45 134.7Z" fill="#FAFAFA"/>
<path d="M95.59 50.72C91.49 51.51 87.22 50.65 83.09 51.29C74.84 52.55 68.66 59.36 61.09 62.83C55.3455 65.3793 48.9214 65.9662 42.81 64.5V86.18C51.2609 81.9835 60.5275 79.6865 69.96 79.45C87.27 78.93 104.23 83.7 121.29 86.69C138.35 89.68 156.64 90.69 172.29 83.28C184.88 77.28 194.41 66.41 206.06 58.74C223.55 47.23 245.93 43.87 266.22 48.79V45.12H102.94C101.92 47.95 98.72 50.11 95.59 50.72ZM133.05 55.58C134.798 55.58 136.508 56.0984 137.961 57.0698C139.415 58.0411 140.548 59.4218 141.217 61.0371C141.886 62.6524 142.061 64.4298 141.72 66.1446C141.379 67.8594 140.537 69.4345 139.301 70.6708C138.065 71.9071 136.489 72.7491 134.775 73.0901C133.06 73.4312 131.282 73.2562 129.667 72.5871C128.052 71.918 126.671 70.785 125.7 69.3312C124.728 67.8775 124.21 66.1684 124.21 64.42C124.21 62.0755 125.141 59.827 126.799 58.1692C128.457 56.5113 130.705 55.58 133.05 55.58Z" fill="#5E64FF"/>
<path d="M206.02 58.74C194.37 66.41 184.84 77.31 172.25 83.31C156.62 90.76 138.32 89.7 121.25 86.72C104.18 83.74 87.25 78.96 69.92 79.48C60.4875 79.7165 51.2209 82.0135 42.77 86.21V100.03H266.18V48.79C245.89 43.87 223.51 47.23 206.02 58.74ZM148.14 93.55C147.966 93.55 147.796 93.4984 147.651 93.4017C147.506 93.305 147.394 93.1676 147.327 93.0068C147.26 92.846 147.243 92.669 147.277 92.4983C147.311 92.3276 147.395 92.1708 147.518 92.0477C147.641 91.9247 147.798 91.8409 147.968 91.8069C148.139 91.773 148.316 91.7904 148.477 91.857C148.638 91.9236 148.775 92.0364 148.872 92.1811C148.968 92.3258 149.02 92.496 149.02 92.67C149.02 92.9034 148.927 93.1272 148.762 93.2923C148.597 93.4573 148.373 93.55 148.14 93.55ZM153.72 93.55C153.487 93.55 153.263 93.4573 153.098 93.2923C152.933 93.1272 152.84 92.9034 152.84 92.67C152.84 92.4366 152.933 92.2128 153.098 92.0477C153.263 91.8827 153.487 91.79 153.72 91.79C153.953 91.79 154.177 91.8827 154.342 92.0477C154.507 92.2128 154.6 92.4366 154.6 92.67C154.6 92.9034 154.507 93.1272 154.342 93.2923C154.177 93.4573 153.953 93.55 153.72 93.55ZM159.29 93.55C159.116 93.55 158.946 93.4984 158.801 93.4017C158.656 93.305 158.544 93.1676 158.477 93.0068C158.41 92.846 158.393 92.669 158.427 92.4983C158.461 92.3276 158.545 92.1708 158.668 92.0477C158.791 91.9247 158.948 91.8409 159.118 91.8069C159.289 91.773 159.466 91.7904 159.627 91.857C159.788 91.9236 159.925 92.0364 160.022 92.1811C160.118 92.3258 160.17 92.496 160.17 92.67C160.17 92.9034 160.077 93.1272 159.912 93.2923C159.747 93.4573 159.523 93.55 159.29 93.55ZM257.34 73.74C257.743 73.3368 258.256 73.0621 258.815 72.9507C259.373 72.8392 259.953 72.896 260.479 73.1138C261.006 73.3317 261.456 73.7008 261.772 74.1745C262.089 74.6483 262.258 75.2052 262.258 75.775C262.258 76.3448 262.089 76.9018 261.772 77.3755C261.456 77.8492 261.006 78.2183 260.479 78.4362C259.953 78.654 259.373 78.7108 258.815 78.5994C258.256 78.4879 257.743 78.2132 257.34 77.81C257.072 77.5433 256.859 77.2262 256.714 76.877C256.569 76.5277 256.494 76.1532 256.494 75.775C256.494 75.3968 256.569 75.0223 256.714 74.6731C256.859 74.3238 257.072 74.0067 257.34 73.74Z" fill="#5E64FF"/>
<path d="M148.14 91.79C147.907 91.79 147.683 91.8827 147.518 92.0478C147.353 92.2128 147.26 92.4366 147.26 92.67C147.26 92.9034 147.353 93.1272 147.518 93.2923C147.683 93.4573 147.907 93.55 148.14 93.55C148.373 93.55 148.597 93.4573 148.762 93.2923C148.927 93.1272 149.02 92.9034 149.02 92.67C149.02 92.4366 148.927 92.2128 148.762 92.0478C148.597 91.8827 148.373 91.79 148.14 91.79Z" fill="#263238"/>
<path d="M153.72 93.55C154.206 93.55 154.6 93.156 154.6 92.67C154.6 92.184 154.206 91.79 153.72 91.79C153.234 91.79 152.84 92.184 152.84 92.67C152.84 93.156 153.234 93.55 153.72 93.55Z" fill="#263238"/>
<path d="M159.29 93.55C159.776 93.55 160.17 93.156 160.17 92.67C160.17 92.184 159.776 91.79 159.29 91.79C158.804 91.79 158.41 92.184 158.41 92.67C158.41 93.156 158.804 93.55 159.29 93.55Z" fill="#263238"/>
<path d="M61.07 62.83C68.66 59.36 74.84 52.55 83.07 51.29C87.2 50.65 91.47 51.51 95.57 50.72C98.71 50.11 101.9 47.95 102.92 45.12H42.79V64.5C48.9014 65.9662 55.3255 65.3793 61.07 62.83Z" fill="#5E64FF"/>
<g opacity="0.3">
<path d="M61.07 62.83C68.66 59.36 74.84 52.55 83.07 51.29C87.2 50.65 91.47 51.51 95.57 50.72C98.71 50.11 101.9 47.95 102.92 45.12H42.79V64.5C48.9014 65.9662 55.3255 65.3793 61.07 62.83Z" fill="white"/>
</g>
<path d="M139.299 70.666C142.752 67.2138 142.752 61.6166 139.299 58.1643C135.847 54.7121 130.25 54.7121 126.798 58.1643C123.346 61.6166 123.346 67.2137 126.798 70.666C130.25 74.1182 135.847 74.1182 139.299 70.666Z" fill="#5E64FF"/>
<g opacity="0.3">
<path d="M139.299 70.666C142.752 67.2138 142.752 61.6166 139.299 58.1643C135.847 54.7121 130.25 54.7121 126.798 58.1643C123.346 61.6166 123.346 67.2137 126.798 70.666C130.25 74.1182 135.847 74.1182 139.299 70.666Z" fill="black"/>
</g>
<path d="M259.38 78.65C260.971 78.65 262.26 77.3606 262.26 75.77C262.26 74.1794 260.971 72.89 259.38 72.89C257.789 72.89 256.5 74.1794 256.5 75.77C256.5 77.3606 257.789 78.65 259.38 78.65Z" fill="#5E64FF"/>
<g opacity="0.3">
<path d="M206.02 58.74C194.37 66.41 184.84 77.31 172.25 83.31C156.62 90.76 138.32 89.7 121.25 86.72C104.18 83.74 87.25 78.96 69.92 79.48C60.4875 79.7165 51.2209 82.0135 42.77 86.21V100.03H266.18V48.79C245.89 43.87 223.51 47.23 206.02 58.74ZM148.14 93.55C147.966 93.55 147.796 93.4984 147.651 93.4017C147.506 93.305 147.394 93.1676 147.327 93.0068C147.26 92.846 147.243 92.669 147.277 92.4983C147.311 92.3276 147.395 92.1708 147.518 92.0477C147.641 91.9247 147.798 91.8409 147.968 91.8069C148.139 91.773 148.316 91.7904 148.477 91.857C148.638 91.9236 148.775 92.0364 148.872 92.1811C148.968 92.3258 149.02 92.496 149.02 92.67C149.02 92.9034 148.927 93.1272 148.762 93.2923C148.597 93.4573 148.373 93.55 148.14 93.55ZM153.72 93.55C153.487 93.55 153.263 93.4573 153.098 93.2923C152.933 93.1272 152.84 92.9034 152.84 92.67C152.84 92.4366 152.933 92.2128 153.098 92.0477C153.263 91.8827 153.487 91.79 153.72 91.79C153.953 91.79 154.177 91.8827 154.342 92.0477C154.507 92.2128 154.6 92.4366 154.6 92.67C154.6 92.9034 154.507 93.1272 154.342 93.2923C154.177 93.4573 153.953 93.55 153.72 93.55ZM159.29 93.55C159.116 93.55 158.946 93.4984 158.801 93.4017C158.656 93.305 158.544 93.1676 158.477 93.0068C158.41 92.846 158.393 92.669 158.427 92.4983C158.461 92.3276 158.545 92.1708 158.668 92.0477C158.791 91.9247 158.948 91.8409 159.118 91.8069C159.289 91.773 159.466 91.7904 159.627 91.857C159.788 91.9236 159.925 92.0364 160.022 92.1811C160.118 92.3258 160.17 92.496 160.17 92.67C160.17 92.9034 160.077 93.1272 159.912 93.2923C159.747 93.4573 159.523 93.55 159.29 93.55ZM257.34 73.74C257.743 73.3368 258.256 73.0621 258.815 72.9507C259.373 72.8392 259.953 72.896 260.479 73.1138C261.006 73.3317 261.456 73.7008 261.772 74.1745C262.089 74.6483 262.258 75.2052 262.258 75.775C262.258 76.3448 262.089 76.9018 261.772 77.3755C261.456 77.8492 261.006 78.2183 260.479 78.4362C259.953 78.654 259.373 78.7108 258.815 78.5994C258.256 78.4879 257.743 78.2132 257.34 77.81C257.072 77.5433 256.859 77.2262 256.714 76.877C256.569 76.5277 256.494 76.1532 256.494 75.775C256.494 75.3968 256.569 75.0223 256.714 74.6731C256.859 74.3238 257.072 74.0067 257.34 73.74Z" fill="black"/>
</g>
<path d="M257.49 148.14C257.744 147.866 258.018 147.612 258.31 147.38C258.84 146.93 259.57 146.32 260.39 145.65V145.81L258.34 143.99C258.047 143.747 257.776 143.48 257.53 143.19C257.856 143.389 258.16 143.62 258.44 143.88C258.98 144.32 259.72 144.95 260.53 145.65L260.62 145.74L260.53 145.81C259.7 146.48 258.95 147.07 258.41 147.49C258.123 147.734 257.816 147.951 257.49 148.14Z" fill="#263238"/>
<path d="M52.5 143.16C52.2495 143.437 51.9751 143.691 51.68 143.92C51.16 144.37 50.42 144.98 49.6 145.64V145.49C50.41 146.19 51.14 146.84 51.6 147.31C51.8958 147.549 52.1671 147.817 52.41 148.11C52.0889 147.909 51.7876 147.678 51.51 147.42C50.97 146.98 50.23 146.35 49.42 145.65L49.32 145.57L49.42 145.49C50.24 144.83 50.99 144.24 51.54 143.81C51.8379 143.562 52.1595 143.345 52.5 143.16Z" fill="#263238"/>
</svg>
