<svg width="101" height="176" viewBox="0 0 101 176" fill="none" xmlns="http://www.w3.org/2000/svg">
<rect width="101" height="176" fill="none"/>
<path d="M76.3101 166.28L23.4601 166.03C21.9503 166.026 20.4562 165.725 19.063 165.143C17.6698 164.561 16.4049 163.711 15.3406 162.64C14.2764 161.569 13.4335 160.299 12.8603 158.903C12.2871 157.506 11.9948 156.01 12.0001 154.5L12.5601 22.4302C12.5692 20.92 12.8758 19.4264 13.4622 18.0347C14.0486 16.6429 14.9034 15.3803 15.9778 14.3189C17.0522 13.2575 18.3251 12.4182 19.7239 11.8488C21.1226 11.2793 22.6199 10.991 24.1301 11.0002L76.9701 11.2502C78.4793 11.2528 79.9733 11.553 81.3664 12.1336C82.7595 12.7142 84.0245 13.5638 85.0889 14.6338C86.1533 15.7038 86.9963 16.9732 87.5696 18.3693C88.1429 19.7655 88.4353 21.261 88.4301 22.7702L87.8701 154.89C87.841 157.932 86.6084 160.837 84.4419 162.972C82.2754 165.107 79.3515 166.296 76.3101 166.28Z" fill="#263238"/>
<path d="M76.9001 15.7602H66.6501C66.3165 15.7654 65.9872 15.8363 65.681 15.9688C65.3749 16.1013 65.0978 16.2928 64.8656 16.5324C64.6335 16.772 64.4508 17.0549 64.328 17.3651C64.2052 17.6753 64.1448 18.0067 64.1501 18.3402V20.1902C64.1567 20.5238 64.0975 20.8554 63.976 21.1661C63.8544 21.4768 63.6729 21.7605 63.4416 22.0011C63.2104 22.2416 62.934 22.4342 62.6284 22.5679C62.3227 22.7016 61.9936 22.7737 61.6601 22.7802L41.6601 22.6802C41.3268 22.6661 40.9997 22.5863 40.6974 22.4452C40.3952 22.3042 40.1238 22.1048 39.8989 21.8586C39.674 21.6123 39.5 21.324 39.3869 21.0102C39.2739 20.6964 39.224 20.3634 39.2401 20.0302V18.1802C39.2494 17.8466 39.1929 17.5145 39.0738 17.2027C38.9547 16.891 38.7753 16.6058 38.5459 16.3634C38.3165 16.121 38.0416 15.9262 37.7369 15.7901C37.4322 15.654 37.1037 15.5793 36.7701 15.5702H33.1601H24.1601C23.1029 15.5636 22.0548 15.7653 21.0756 16.1638C20.0964 16.5623 19.2053 17.1497 18.4532 17.8926C17.701 18.6355 17.1025 19.5192 16.6919 20.4934C16.2813 21.4676 16.0666 22.5131 16.0601 23.5702L15.5101 152.57C15.5008 153.627 15.7009 154.674 16.0988 155.653C16.4967 156.632 17.0845 157.522 17.8283 158.272C18.5721 159.023 19.4571 159.618 20.4323 160.025C21.4075 160.431 22.4536 160.64 23.5101 160.64L76.2501 160.88C77.3072 160.887 78.3553 160.685 79.3345 160.287C80.3137 159.888 81.2048 159.301 81.957 158.558C82.7091 157.815 83.3076 156.931 83.7182 155.957C84.1288 154.983 84.3435 153.937 84.3501 152.88L84.8901 23.8802C84.906 22.8204 84.7111 21.7681 84.3168 20.7842C83.9225 19.8004 83.3367 18.9047 82.5933 18.1492C81.8499 17.3937 80.9638 16.7935 79.9864 16.3834C79.0091 15.9732 77.96 15.7614 76.9001 15.7602Z" fill="white"/>
<path d="M76.2401 68.5702C76.2401 68.7102 64.7701 68.8302 50.6301 68.8302C36.4901 68.8302 25.0101 68.7102 25.0101 68.5702C25.0101 68.4302 36.4801 68.3102 50.6301 68.3102C64.7801 68.3102 76.2401 68.4302 76.2401 68.5702Z" fill="#263238"/>
<path d="M76.2401 71.7202C76.2401 71.8702 64.7701 71.9802 50.6301 71.9802C36.4901 71.9802 25.0101 71.8702 25.0101 71.7202C25.0101 71.5702 36.4801 71.4602 50.6301 71.4602C64.7801 71.4602 76.2401 71.5802 76.2401 71.7202Z" fill="#263238"/>
<path d="M58.9301 74.5502C58.9301 74.6902 54.3101 74.8102 48.6201 74.8102C42.9301 74.8102 38.3101 74.6902 38.3101 74.5502C41.74 74.2864 45.1812 74.1996 48.6201 74.2902C52.0589 74.1999 55.5002 74.2867 58.9301 74.5502Z" fill="#263238"/>
<path d="M76.2101 81.4902H22.0201V116.18H76.2101V81.4902Z" fill="#5E64FF"/>
<path d="M27.7101 90.5002C28.9086 90.5002 29.8801 89.5466 29.8801 88.3702C29.8801 87.1939 28.9086 86.2402 27.7101 86.2402C26.5116 86.2402 25.5401 87.1939 25.5401 88.3702C25.5401 89.5466 26.5116 90.5002 27.7101 90.5002Z" fill="#FAFAFA"/>
<path d="M73.2401 90.1702L71.4901 88.4302L69.8401 90.0902L69.7801 85.0902H73.2201L73.2401 90.1702ZM71.4501 88.2402L71.5101 88.2902L73.0801 89.8002V85.2602H69.9501L70.0001 89.7002L71.4501 88.2402Z" fill="#FAFAFA"/>
<path d="M59.6301 87.2402C59.6301 87.3902 53.6801 87.5002 46.3301 87.5002C38.9801 87.5002 33.0401 87.3902 33.0401 87.2402C33.0401 87.0902 38.9901 86.9802 46.3301 86.9802C53.6701 86.9802 59.6301 87.1002 59.6301 87.2402Z" fill="#FAFAFA"/>
<path d="M43.2901 90.1702C41.5963 90.4271 39.8812 90.5142 38.1701 90.4302C36.4557 90.5139 34.7372 90.4268 33.0401 90.1702C34.736 89.9011 36.4554 89.8106 38.1701 89.9002C39.8815 89.8103 41.5976 89.9008 43.2901 90.1702Z" fill="#FAFAFA"/>
<path d="M36.7301 15.5702H33.1201H24.1201C23.063 15.5636 22.0149 15.7653 21.0357 16.1638C20.0565 16.5623 19.1654 17.1497 18.4132 17.8926C17.661 18.6355 17.0626 19.5192 16.652 20.4934C16.2414 21.4676 16.0266 22.5131 16.0201 23.5702L15.9101 48.0202C18.6201 48.5702 21.3301 49.1002 24.0401 49.5702C38.0401 52.0102 52.9701 52.8802 65.7601 46.7802C72.8501 43.4102 78.7601 38.1402 84.8401 33.1402V23.8802C84.8493 22.8238 84.6492 21.776 84.2513 20.7973C83.8534 19.8186 83.2656 18.9284 82.5219 18.1781C81.7781 17.4278 80.893 16.8322 79.9178 16.4258C78.9426 16.0194 77.8966 15.8102 76.8401 15.8102H66.5901C66.2565 15.8154 65.9273 15.8863 65.6211 16.0188C65.3149 16.1513 65.0378 16.3428 64.8057 16.5824C64.5735 16.822 64.3908 17.1049 64.2681 17.4151C64.1453 17.7253 64.0848 18.0567 64.0901 18.3902V20.2402C64.0967 20.5738 64.0376 20.9054 63.916 21.2161C63.7945 21.5268 63.6129 21.8105 63.3817 22.0511C63.1504 22.2916 62.8741 22.4842 62.5684 22.6179C62.2627 22.7516 61.9337 22.8237 61.6001 22.8302L41.6001 22.7302C41.2676 22.7086 40.9426 22.6216 40.6439 22.4741C40.3451 22.3265 40.0784 22.1214 39.8591 21.8706C39.6398 21.6197 39.4723 21.328 39.366 21.0121C39.2598 20.6963 39.217 20.3626 39.2401 20.0302V18.1802C39.2494 17.8433 39.1916 17.508 39.07 17.1936C38.9484 16.8793 38.7655 16.5923 38.5318 16.3494C38.2982 16.1065 38.0186 15.9125 37.7093 15.7787C37.4 15.645 37.0671 15.5741 36.7301 15.5702ZM40.9501 31.3002C40.9501 32.7306 40.5258 34.1289 39.7309 35.318C38.936 36.5072 37.8063 37.4339 36.4846 37.9808C35.1629 38.5278 33.7087 38.6703 32.3059 38.3906C30.9032 38.1108 29.6149 37.4212 28.6042 36.4091C27.5934 35.3969 26.9056 34.1077 26.6278 32.7046C26.35 31.3014 26.4946 29.8474 27.0433 28.5265C27.5921 27.2056 28.5203 26.0771 29.7106 25.2838C30.9009 24.4906 32.2997 24.0682 33.7301 24.0702C35.6459 24.0729 37.4823 24.8358 38.836 26.1914C40.1897 27.547 40.9501 29.3844 40.9501 31.3002Z" fill="#5E64FF"/>
<path d="M24.0801 49.5202C21.3701 49.0502 18.6601 48.5202 15.9501 47.9702L15.9001 60.4302H84.7701L84.8801 33.1002C78.7901 38.1002 72.8801 43.3702 65.8001 46.7402C53.0101 52.8302 38.0401 51.9602 24.0801 49.5202ZM45.0801 56.0302C44.9575 56.0302 44.8376 55.9939 44.7356 55.9257C44.6337 55.8576 44.5542 55.7608 44.5073 55.6475C44.4604 55.5342 44.4481 55.4095 44.472 55.2893C44.4959 55.169 44.555 55.0585 44.6417 54.9718C44.7284 54.8851 44.8389 54.8261 44.9591 54.8021C45.0794 54.7782 45.2041 54.7905 45.3174 54.8374C45.4306 54.8843 45.5275 54.9638 45.5956 55.0658C45.6637 55.1677 45.7001 55.2876 45.7001 55.4102C45.7003 55.4951 45.683 55.5792 45.6494 55.6571C45.6157 55.7351 45.5665 55.8053 45.5046 55.8634C45.4427 55.9215 45.3695 55.9663 45.2896 55.995C45.2097 56.0237 45.1248 56.0357 45.0401 56.0302H45.0801ZM49.0201 56.0302C48.8975 56.0302 48.7776 55.9939 48.6756 55.9257C48.5737 55.8576 48.4942 55.7608 48.4473 55.6475C48.4004 55.5342 48.3881 55.4095 48.412 55.2893C48.4359 55.169 48.495 55.0585 48.5817 54.9718C48.6684 54.8851 48.7789 54.8261 48.8991 54.8021C49.0194 54.7782 49.144 54.7905 49.2573 54.8374C49.3706 54.8843 49.4675 54.9638 49.5356 55.0658C49.6037 55.1677 49.6401 55.2876 49.6401 55.4102C49.6403 55.4951 49.623 55.5792 49.5894 55.6571C49.5557 55.7351 49.5065 55.8053 49.4446 55.8634C49.3827 55.9215 49.3095 55.9663 49.2296 55.995C49.1497 56.0237 49.0648 56.0357 48.9801 56.0302H49.0201ZM52.9601 56.0302C52.8375 56.0302 52.7176 55.9939 52.6156 55.9257C52.5137 55.8576 52.4342 55.7608 52.3873 55.6475C52.3404 55.5342 52.3281 55.4095 52.352 55.2893C52.3759 55.169 52.435 55.0585 52.5217 54.9718C52.6084 54.8851 52.7189 54.8261 52.8391 54.8021C52.9594 54.7782 53.0841 54.7905 53.1973 54.8374C53.3106 54.8843 53.4075 54.9638 53.4756 55.0658C53.5437 55.1677 53.5801 55.2876 53.5801 55.4102C53.5803 55.4951 53.563 55.5792 53.5294 55.6571C53.4957 55.7351 53.4465 55.8053 53.3846 55.8634C53.3227 55.9215 53.2495 55.9663 53.1696 55.995C53.0897 56.0237 53.0048 56.0357 52.9201 56.0302H52.9601Z" fill="#5E64FF"/>
<path d="M45.0401 54.7902C44.9175 54.7902 44.7976 54.8265 44.6956 54.8947C44.5937 54.9628 44.5142 55.0596 44.4673 55.1729C44.4203 55.2862 44.4081 55.4108 44.432 55.5311C44.4559 55.6514 44.515 55.7619 44.6017 55.8486C44.6884 55.9353 44.7989 55.9943 44.9191 56.0182C45.0394 56.0422 45.1641 56.0299 45.2773 55.983C45.3906 55.936 45.4875 55.8566 45.5556 55.7546C45.6237 55.6526 45.6601 55.5328 45.6601 55.4102C45.6601 55.2457 45.5948 55.088 45.4785 54.9718C45.3622 54.8555 45.2045 54.7902 45.0401 54.7902Z" fill="#263238"/>
<path d="M48.9801 54.7902C48.8575 54.7902 48.7376 54.8265 48.6356 54.8947C48.5337 54.9628 48.4542 55.0596 48.4073 55.1729C48.3603 55.2862 48.3481 55.4108 48.372 55.5311C48.3959 55.6514 48.455 55.7619 48.5417 55.8486C48.6284 55.9353 48.7389 55.9943 48.8591 56.0182C48.9794 56.0422 49.1041 56.0299 49.2173 55.983C49.3306 55.936 49.4275 55.8566 49.4956 55.7546C49.5637 55.6526 49.6001 55.5328 49.6001 55.4102C49.6001 55.2457 49.5348 55.088 49.4185 54.9718C49.3022 54.8555 49.1445 54.7902 48.9801 54.7902Z" fill="#263238"/>
<path d="M52.9201 54.7902C52.7974 54.7902 52.6776 54.8265 52.5756 54.8947C52.4737 54.9628 52.3942 55.0596 52.3473 55.1729C52.3003 55.2862 52.2881 55.4108 52.312 55.5311C52.3359 55.6514 52.395 55.7619 52.4817 55.8486C52.5684 55.9353 52.6789 55.9943 52.7991 56.0182C52.9194 56.0422 53.0441 56.0299 53.1573 55.983C53.2706 55.936 53.3675 55.8566 53.4356 55.7546C53.5037 55.6526 53.5401 55.5328 53.5401 55.4102C53.5401 55.3287 53.524 55.2481 53.4929 55.1729C53.4617 55.0977 53.4161 55.0293 53.3585 54.9718C53.3009 54.9142 53.2326 54.8685 53.1573 54.8374C53.0821 54.8062 53.0015 54.7902 52.9201 54.7902Z" fill="#263238"/>
<path d="M33.7301 24.0702C32.2997 24.0682 30.9009 24.4906 29.7106 25.2838C28.5203 26.077 27.5921 27.2055 27.0433 28.5265C26.4945 29.8474 26.35 31.3014 26.6278 32.7046C26.9056 34.1077 27.5934 35.3969 28.6042 36.409C29.6149 37.4212 30.9031 38.1107 32.3059 38.3905C33.7086 38.6703 35.1629 38.5277 36.4846 37.9808C37.8063 37.4339 38.936 36.5072 39.7309 35.318C40.5258 34.1288 40.9501 32.7306 40.9501 31.3002C40.9501 29.3844 40.1897 27.5469 38.836 26.1913C37.4823 24.8357 35.6459 24.0728 33.7301 24.0702Z" fill="#5E64FF"/>
<g opacity="0.3">
<path d="M33.7301 24.0702C32.2997 24.0682 30.9009 24.4906 29.7106 25.2838C28.5203 26.077 27.5921 27.2055 27.0433 28.5265C26.4945 29.8474 26.35 31.3014 26.6278 32.7046C26.9056 34.1077 27.5934 35.3969 28.6042 36.409C29.6149 37.4212 30.9031 38.1107 32.3059 38.3905C33.7086 38.6703 35.1629 38.5277 36.4846 37.9808C37.8063 37.4339 38.936 36.5072 39.7309 35.318C40.5258 34.1288 40.9501 32.7306 40.9501 31.3002C40.9501 29.3844 40.1897 27.5469 38.836 26.1913C37.4823 24.8357 35.6459 24.0728 33.7301 24.0702Z" fill="black"/>
</g>
<path d="M22.0201 160.43C22.5212 160.526 23.0299 160.576 23.5401 160.58L75.2101 160.82V133.63H22.0201V160.43ZM72.2401 137.25L72.3001 142.3L70.5501 140.59L68.9201 142.25L68.8701 137.25H72.2401ZM27.6101 138.43C28.0314 138.43 28.4432 138.555 28.7934 138.789C29.1437 139.023 29.4167 139.356 29.5779 139.745C29.7392 140.134 29.7813 140.563 29.6992 140.976C29.617 141.389 29.4141 141.769 29.1162 142.066C28.8183 142.364 28.4388 142.567 28.0256 142.649C27.6124 142.732 27.1842 142.689 26.795 142.528C26.4058 142.367 26.0731 142.094 25.8391 141.744C25.605 141.393 25.4801 140.982 25.4801 140.56C25.4801 139.995 25.7045 139.454 26.1039 139.054C26.5034 138.655 27.0452 138.43 27.6101 138.43Z" fill="#455A64"/>
<path d="M70.5801 140.37L70.6301 140.43L72.1701 141.93L72.1201 137.4L69.0501 137.43L69.1001 141.88L70.5801 140.37Z" fill="#455A64"/>
<path d="M27.6101 142.64C28.7865 142.64 29.7401 141.687 29.7401 140.51C29.7401 139.334 28.7865 138.38 27.6101 138.38C26.4337 138.38 25.4801 139.334 25.4801 140.51C25.4801 141.687 26.4337 142.64 27.6101 142.64Z" fill="#FAFAFA"/>
<path d="M70.5801 140.59L72.3301 142.3L72.2701 137.25H68.9001L68.9501 142.25L70.5801 140.59ZM72.1201 137.4L72.1701 141.94L70.6301 140.43L70.5701 140.37L69.1001 141.88L69.0501 137.43L72.1201 137.4Z" fill="#FAFAFA"/>
<g opacity="0.3">
<path d="M24.0801 49.5202C21.3701 49.0502 18.6601 48.5202 15.9501 47.9702L15.9001 60.4302H84.7701L84.8801 33.1002C78.7901 38.1002 72.8801 43.3702 65.8001 46.7402C53.0101 52.8302 38.0401 51.9602 24.0801 49.5202ZM45.0801 56.0302C44.9575 56.0302 44.8376 55.9939 44.7356 55.9257C44.6337 55.8576 44.5542 55.7608 44.5073 55.6475C44.4604 55.5342 44.4481 55.4095 44.472 55.2893C44.4959 55.169 44.555 55.0585 44.6417 54.9718C44.7284 54.8851 44.8389 54.8261 44.9591 54.8021C45.0794 54.7782 45.2041 54.7905 45.3174 54.8374C45.4306 54.8843 45.5275 54.9638 45.5956 55.0658C45.6637 55.1677 45.7001 55.2876 45.7001 55.4102C45.7003 55.4951 45.683 55.5792 45.6494 55.6571C45.6157 55.7351 45.5665 55.8053 45.5046 55.8634C45.4427 55.9215 45.3695 55.9663 45.2896 55.995C45.2097 56.0237 45.1248 56.0357 45.0401 56.0302H45.0801ZM49.0201 56.0302C48.8975 56.0302 48.7776 55.9939 48.6756 55.9257C48.5737 55.8576 48.4942 55.7608 48.4473 55.6475C48.4004 55.5342 48.3881 55.4095 48.412 55.2893C48.4359 55.169 48.495 55.0585 48.5817 54.9718C48.6684 54.8851 48.7789 54.8261 48.8991 54.8021C49.0194 54.7782 49.144 54.7905 49.2573 54.8374C49.3706 54.8843 49.4675 54.9638 49.5356 55.0658C49.6037 55.1677 49.6401 55.2876 49.6401 55.4102C49.6403 55.4951 49.623 55.5792 49.5894 55.6571C49.5557 55.7351 49.5065 55.8053 49.4446 55.8634C49.3827 55.9215 49.3095 55.9663 49.2296 55.995C49.1497 56.0237 49.0648 56.0357 48.9801 56.0302H49.0201ZM52.9601 56.0302C52.8375 56.0302 52.7176 55.9939 52.6156 55.9257C52.5137 55.8576 52.4342 55.7608 52.3873 55.6475C52.3404 55.5342 52.3281 55.4095 52.352 55.2893C52.3759 55.169 52.435 55.0585 52.5217 54.9718C52.6084 54.8851 52.7189 54.8261 52.8391 54.8021C52.9594 54.7782 53.0841 54.7905 53.1973 54.8374C53.3106 54.8843 53.4075 54.9638 53.4756 55.0658C53.5437 55.1677 53.5801 55.2876 53.5801 55.4102C53.5803 55.4951 53.563 55.5792 53.5294 55.6571C53.4957 55.7351 53.4465 55.8053 53.3846 55.8634C53.3227 55.9215 53.2495 55.9663 53.1696 55.995C53.0897 56.0237 53.0048 56.0357 52.9201 56.0302H52.9601Z" fill="black"/>
</g>
<path d="M74.7701 119.66C74.7701 119.81 62.9601 119.92 48.4001 119.92C33.8401 119.92 22.0201 119.81 22.0201 119.66C22.0201 119.51 33.8301 119.4 48.4001 119.4C62.9701 119.4 74.7701 119.52 74.7701 119.66Z" fill="#263238"/>
<path d="M74.7701 122.33C74.7701 122.47 62.9601 122.59 48.4001 122.59C33.8401 122.59 22.0201 122.47 22.0201 122.33C22.0201 122.19 33.8301 122.07 48.4001 122.07C62.9701 122.07 74.7701 122.18 74.7701 122.33Z" fill="#263238"/>
<path d="M74.7701 125.37C74.7701 125.51 62.9601 125.63 48.4001 125.63C33.8401 125.63 22.0201 125.51 22.0201 125.37C22.0201 125.23 33.8301 125.11 48.4001 125.11C62.9701 125.11 74.7701 125.23 74.7701 125.37Z" fill="#263238"/>
<path d="M49.5101 128.01C49.5101 128.16 43.3601 128.27 35.7701 128.27C28.1801 128.27 22.0201 128.16 22.0201 128.01C22.0201 127.86 28.1801 127.75 35.7701 127.75C43.3601 127.75 49.5101 127.87 49.5101 128.01Z" fill="#263238"/>
</svg>
