<svg width="136" height="169" viewBox="0 0 136 169" fill="none" xmlns="http://www.w3.org/2000/svg">
<rect width="136" height="169" fill="none"/>
<path d="M114.15 0H21.55C15.1711 0 10 5.1711 10 11.55V154.48C10 160.859 15.1711 166.03 21.55 166.03H114.15C120.529 166.03 125.7 160.859 125.7 154.48V11.55C125.7 5.1711 120.529 0 114.15 0Z" fill="#263238"/>
<path d="M121.87 11.3599H13.65V150.02H121.87V11.3599Z" fill="white"/>
<path d="M72.29 157.69C72.29 158.568 72.0295 159.427 71.5417 160.157C71.0538 160.887 70.3604 161.456 69.5491 161.792C68.7378 162.128 67.845 162.216 66.9837 162.045C66.1225 161.873 65.3314 161.451 64.7104 160.83C64.0895 160.209 63.6666 159.417 63.4953 158.556C63.324 157.695 63.4119 156.802 63.748 155.991C64.084 155.18 64.6531 154.486 65.3832 153.998C66.1134 153.51 66.9718 153.25 67.85 153.25C69.0275 153.25 70.1569 153.718 70.9895 154.55C71.8222 155.383 72.29 156.512 72.29 157.69Z" fill="#455A64"/>
<path d="M84.37 4.78003H51.34C50.8374 4.78003 50.43 5.18745 50.43 5.69003V5.70004C50.43 6.20262 50.8374 6.61002 51.34 6.61002H84.37C84.8726 6.61002 85.28 6.20262 85.28 5.70004V5.69003C85.28 5.18745 84.8726 4.78003 84.37 4.78003Z" fill="#455A64"/>
<path d="M112.64 74.1499H69.3V102.42H112.64V74.1499Z" fill="#455A64"/>
<path d="M75.59 79.7601C75.59 80.1042 75.4879 80.4406 75.2967 80.7267C75.1056 81.0129 74.8338 81.2359 74.5159 81.3676C74.1979 81.4993 73.8481 81.5338 73.5106 81.4666C73.173 81.3995 72.863 81.2338 72.6196 80.9904C72.3763 80.7471 72.2106 80.437 72.1434 80.0995C72.0763 79.762 72.1107 79.4121 72.2424 79.0942C72.3741 78.7762 72.5972 78.5045 72.8833 78.3133C73.1694 78.1221 73.5058 78.02 73.85 78.02C74.0788 78.0187 74.3057 78.0628 74.5174 78.1498C74.7292 78.2368 74.9215 78.3649 75.0833 78.5267C75.2451 78.6886 75.3733 78.8809 75.4603 79.0926C75.5472 79.3043 75.5913 79.5312 75.59 79.7601Z" fill="#FAFAFA"/>
<path d="M110.29 81.2499L108.86 79.8499L107.54 81.2099V77.1599H110.3L110.29 81.2499ZM108.86 79.6799L110.11 80.9099V77.2199H107.61V80.8499L108.86 79.6799Z" fill="#FAFAFA"/>
<path d="M99.37 78.8401C99.37 78.9801 94.61 79.1001 88.74 79.1001C82.87 79.1001 78.11 78.9801 78.11 78.8401C78.11 78.7001 82.87 78.5801 88.74 78.5801C94.61 78.5801 99.37 78.6901 99.37 78.8401Z" fill="#FAFAFA"/>
<path d="M86.31 81.25C83.5877 81.5966 80.8323 81.5966 78.11 81.25C80.8323 80.9033 83.5877 80.9033 86.31 81.25Z" fill="#FAFAFA"/>
<path d="M23.66 15.7901C20.41 16.4201 17.04 15.7401 13.77 16.2401H13.65V38.9001C23.81 39.9001 33.87 42.4601 43.97 44.2301C57.46 46.5901 71.97 47.4201 84.31 41.5301C94.31 36.7901 101.8 28.1801 111.02 22.1201C114.429 19.8801 118.07 18.0159 121.88 16.5601V11.3401H29.47C28.67 13.6001 26.14 15.3101 23.66 15.7901ZM53.29 19.6401C54.6744 19.6401 56.0278 20.0506 57.179 20.8198C58.3301 21.589 59.2273 22.6822 59.7571 23.9613C60.287 25.2404 60.4256 26.6479 60.1555 28.0057C59.8854 29.3636 59.2187 30.6109 58.2397 31.5898C57.2608 32.5688 56.0135 33.2355 54.6556 33.5056C53.2978 33.7757 51.8903 33.6371 50.6112 33.1072C49.3321 32.5774 48.2389 31.6802 47.4697 30.5291C46.7006 29.3779 46.29 28.0246 46.29 26.6401C46.29 25.7209 46.471 24.8106 46.8228 23.9613C47.1746 23.112 47.6903 22.3403 48.3403 21.6903C48.9903 21.0403 49.7619 20.5247 50.6112 20.1729C51.4605 19.8212 52.3707 19.6401 53.29 19.6401Z" fill="#5E64FF"/>
<path d="M84.31 41.5501C71.94 47.4401 57.46 46.6101 43.97 44.2501C33.87 42.4801 23.81 39.9201 13.65 38.9201V54.7801H121.88V16.5801C118.07 18.0359 114.429 19.9001 111.02 22.1401C101.8 28.2501 94.24 36.8101 84.31 41.5501ZM64.23 50.5501C64.1118 50.5481 63.9968 50.5113 63.8994 50.4442C63.8021 50.377 63.7267 50.2826 63.6829 50.1729C63.639 50.0631 63.6285 49.9427 63.6528 49.827C63.677 49.7113 63.735 49.6053 63.8193 49.5224C63.9036 49.4395 64.0105 49.3833 64.1266 49.361C64.2427 49.3386 64.3628 49.3511 64.4719 49.3968C64.5809 49.4425 64.674 49.5194 64.7395 49.6178C64.805 49.7162 64.8399 49.8319 64.84 49.9501C64.8373 50.1075 64.773 50.2576 64.6608 50.3679C64.5485 50.4783 64.3974 50.5401 64.24 50.5401L64.23 50.5501ZM68.04 50.5501C67.9218 50.5481 67.8068 50.5113 67.7094 50.4442C67.6121 50.377 67.5367 50.2826 67.4929 50.1729C67.449 50.0631 67.4385 49.9427 67.4628 49.827C67.487 49.7113 67.545 49.6053 67.6293 49.5224C67.7136 49.4395 67.8205 49.3833 67.9366 49.361C68.0527 49.3386 68.1728 49.3511 68.2819 49.3968C68.3909 49.4425 68.484 49.5194 68.5495 49.6178C68.615 49.7162 68.6499 49.8319 68.65 49.9501C68.6487 50.0289 68.6319 50.1067 68.6005 50.179C68.5692 50.2513 68.5239 50.3167 68.4672 50.3715C68.4106 50.4262 68.3437 50.4693 68.2704 50.4983C68.1971 50.5272 68.1188 50.5414 68.04 50.5401V50.5501ZM71.85 50.5501C71.7712 50.5501 71.6932 50.5346 71.6204 50.5044C71.5476 50.4743 71.4814 50.4301 71.4257 50.3744C71.37 50.3186 71.3258 50.2525 71.2957 50.1797C71.2655 50.1069 71.25 50.0289 71.25 49.9501C71.25 49.8713 71.2655 49.7933 71.2957 49.7205C71.3258 49.6477 71.37 49.5815 71.4257 49.5258C71.4814 49.4701 71.5476 49.4259 71.6204 49.3958C71.6932 49.3656 71.7712 49.3501 71.85 49.3501C71.9288 49.3501 72.0068 49.3656 72.0796 49.3958C72.1524 49.4259 72.2185 49.4701 72.2742 49.5258C72.3299 49.5815 72.3741 49.6477 72.4043 49.7205C72.4344 49.7933 72.45 49.8713 72.45 49.9501C72.45 50.0289 72.4344 50.1069 72.4043 50.1797C72.3741 50.2525 72.3299 50.3186 72.2742 50.3744C72.2185 50.4301 72.1524 50.4743 72.0796 50.5044C72.0068 50.5346 71.9288 50.5501 71.85 50.5501Z" fill="#5E64FF"/>
<g opacity="0.3">
<path d="M84.31 41.5501C71.94 47.4401 57.46 46.6101 43.97 44.2501C33.87 42.4801 23.81 39.9201 13.65 38.9201V54.7801H121.88V16.5801C118.07 18.0359 114.429 19.9001 111.02 22.1401C101.8 28.2501 94.24 36.8101 84.31 41.5501ZM64.23 50.5501C64.1118 50.5481 63.9968 50.5113 63.8994 50.4442C63.8021 50.377 63.7267 50.2826 63.6829 50.1729C63.639 50.0631 63.6285 49.9427 63.6528 49.827C63.677 49.7113 63.735 49.6053 63.8193 49.5224C63.9036 49.4395 64.0105 49.3833 64.1266 49.361C64.2427 49.3386 64.3628 49.3511 64.4719 49.3968C64.5809 49.4425 64.674 49.5194 64.7395 49.6178C64.805 49.7162 64.8399 49.8319 64.84 49.9501C64.8373 50.1075 64.773 50.2576 64.6608 50.3679C64.5485 50.4783 64.3974 50.5401 64.24 50.5401L64.23 50.5501ZM68.04 50.5501C67.9218 50.5481 67.8068 50.5113 67.7094 50.4442C67.6121 50.377 67.5367 50.2826 67.4929 50.1729C67.449 50.0631 67.4385 49.9427 67.4628 49.827C67.487 49.7113 67.545 49.6053 67.6293 49.5224C67.7136 49.4395 67.8205 49.3833 67.9366 49.361C68.0527 49.3386 68.1728 49.3511 68.2819 49.3968C68.3909 49.4425 68.484 49.5194 68.5495 49.6178C68.615 49.7162 68.6499 49.8319 68.65 49.9501C68.6487 50.0289 68.6319 50.1067 68.6005 50.179C68.5692 50.2513 68.5239 50.3167 68.4672 50.3715C68.4106 50.4262 68.3437 50.4693 68.2704 50.4983C68.1971 50.5272 68.1188 50.5414 68.04 50.5401V50.5501ZM71.85 50.5501C71.7712 50.5501 71.6932 50.5346 71.6204 50.5044C71.5476 50.4743 71.4814 50.4301 71.4257 50.3744C71.37 50.3186 71.3258 50.2525 71.2957 50.1797C71.2655 50.1069 71.25 50.0289 71.25 49.9501C71.25 49.8713 71.2655 49.7933 71.2957 49.7205C71.3258 49.6477 71.37 49.5815 71.4257 49.5258C71.4814 49.4701 71.5476 49.4259 71.6204 49.3958C71.6932 49.3656 71.7712 49.3501 71.85 49.3501C71.9288 49.3501 72.0068 49.3656 72.0796 49.3958C72.1524 49.4259 72.2185 49.4701 72.2742 49.5258C72.3299 49.5815 72.3741 49.6477 72.4043 49.7205C72.4344 49.7933 72.45 49.8713 72.45 49.9501C72.45 50.0289 72.4344 50.1069 72.4043 50.1797C72.3741 50.2525 72.3299 50.3186 72.2742 50.3744C72.2185 50.4301 72.1524 50.4743 72.0796 50.5044C72.0068 50.5346 71.9288 50.5501 71.85 50.5501Z" fill="black"/>
</g>
<path d="M64.24 49.3399C64.1218 49.3419 64.0068 49.3788 63.9094 49.4459C63.8121 49.513 63.7368 49.6074 63.6929 49.7172C63.649 49.8269 63.6385 49.9473 63.6628 50.063C63.6871 50.1787 63.7449 50.2847 63.8292 50.3676C63.9135 50.4505 64.0204 50.5067 64.1366 50.529C64.2527 50.5514 64.3728 50.5389 64.4819 50.4932C64.5909 50.4476 64.684 50.3706 64.7495 50.2722C64.815 50.1738 64.85 50.0582 64.85 49.9399C64.85 49.8603 64.8342 49.7815 64.8034 49.708C64.7726 49.6345 64.7275 49.5679 64.6707 49.5121C64.614 49.4562 64.5466 49.4123 64.4727 49.3827C64.3987 49.3532 64.3196 49.3386 64.24 49.3399Z" fill="#263238"/>
<path d="M68.04 49.3399C67.9218 49.3419 67.8068 49.3788 67.7094 49.4459C67.6121 49.513 67.5368 49.6074 67.4929 49.7172C67.449 49.8269 67.4385 49.9473 67.4628 50.063C67.4871 50.1787 67.545 50.2847 67.6293 50.3676C67.7136 50.4505 67.8205 50.5067 67.9366 50.529C68.0527 50.5514 68.1728 50.5389 68.2819 50.4932C68.3909 50.4476 68.484 50.3706 68.5495 50.2722C68.615 50.1738 68.65 50.0582 68.65 49.9399C68.65 49.8603 68.6342 49.7815 68.6034 49.708C68.5726 49.6345 68.5275 49.5679 68.4707 49.5121C68.4139 49.4562 68.3466 49.4123 68.2727 49.3827C68.1987 49.3532 68.1196 49.3386 68.04 49.3399Z" fill="#263238"/>
<path d="M71.85 49.3401C71.6908 49.3401 71.5382 49.4033 71.4257 49.5158C71.3132 49.6284 71.25 49.781 71.25 49.9401C71.25 50.0992 71.3132 50.2518 71.4257 50.3643C71.5382 50.4769 71.6908 50.5401 71.85 50.5401C72.0091 50.5401 72.1617 50.4769 72.2742 50.3643C72.3868 50.2518 72.45 50.0992 72.45 49.9401C72.45 49.781 72.3868 49.6284 72.2742 49.5158C72.1617 49.4033 72.0091 49.3401 71.85 49.3401Z" fill="#263238"/>
<path d="M53.29 33.6201C57.1504 33.6201 60.28 30.4906 60.28 26.6301C60.28 22.7697 57.1504 19.6401 53.29 19.6401C49.4295 19.6401 46.3 22.7697 46.3 26.6301C46.3 30.4906 49.4295 33.6201 53.29 33.6201Z" fill="#5E64FF"/>
<g opacity="0.3">
<path d="M53.29 33.6201C57.1504 33.6201 60.28 30.4906 60.28 26.6301C60.28 22.7697 57.1504 19.6401 53.29 19.6401C49.4295 19.6401 46.3 22.7697 46.3 26.6301C46.3 30.4906 49.4295 33.6201 53.29 33.6201Z" fill="black"/>
</g>
<path d="M23.66 15.7899C26.14 15.3099 28.66 13.5999 29.47 11.3599H13.65V16.2499H13.77C17.04 15.7399 20.41 16.4199 23.66 15.7899Z" fill="#5E64FF"/>
<path d="M109.83 63.6301C109.83 63.7801 90.99 63.8901 67.77 63.8901C44.55 63.8901 25.7 63.7801 25.7 63.6301C25.7 63.4801 44.53 63.3701 67.77 63.3701C91.01 63.3701 109.83 63.4901 109.83 63.6301Z" fill="#263238"/>
<path d="M89.37 66.53C89.37 66.68 79.28 66.79 66.84 66.79C54.4 66.79 44.3 66.68 44.3 66.53C44.3 66.38 54.39 66.27 66.84 66.27C79.29 66.27 89.37 66.39 89.37 66.53Z" fill="#263238"/>
<path d="M63.31 74.1499H19.97V102.42H63.31V74.1499Z" fill="#5E64FF"/>
<path d="M26.24 79.7601C26.24 80.1042 26.1379 80.4406 25.9468 80.7267C25.7556 81.0129 25.4838 81.2359 25.1658 81.3676C24.8479 81.4993 24.498 81.5338 24.1605 81.4666C23.823 81.3995 23.513 81.2338 23.2696 80.9904C23.0263 80.7471 22.8605 80.437 22.7934 80.0995C22.7262 79.762 22.7607 79.4121 22.8924 79.0942C23.0241 78.7762 23.2472 78.5045 23.5333 78.3133C23.8194 78.1221 24.1558 78.02 24.5 78.02C24.7288 78.0187 24.9557 78.0628 25.1674 78.1498C25.3791 78.2368 25.5715 78.3649 25.7333 78.5267C25.8952 78.6886 26.0232 78.8809 26.1102 79.0926C26.1972 79.3043 26.2413 79.5312 26.24 79.7601Z" fill="#FAFAFA"/>
<path d="M60.96 81.2499L59.53 79.8499L58.24 81.1799L58.19 77.1299H60.95L60.96 81.2499ZM59.53 79.6799H59.58L60.83 80.9099V77.2199H58.33V80.8499L59.53 79.6799Z" fill="#FAFAFA"/>
<path d="M50.04 78.8401C50.04 78.9801 45.28 79.1001 39.41 79.1001C33.54 79.1001 28.78 78.9801 28.78 78.8401C28.78 78.7001 33.54 78.5801 39.41 78.5801C45.28 78.5801 50.04 78.6901 50.04 78.8401Z" fill="#FAFAFA"/>
<path d="M36.98 81.25C34.2576 81.5966 31.5023 81.5966 28.78 81.25C31.5023 80.9033 34.2576 80.9033 36.98 81.25Z" fill="#FAFAFA"/>
<path d="M63.31 106.25C63.31 106.39 53.61 106.51 41.64 106.51C29.67 106.51 19.97 106.39 19.97 106.25C19.97 106.11 29.67 105.99 41.64 105.99C53.61 105.99 63.31 106.12 63.31 106.25Z" fill="#263238"/>
<path d="M63.31 108.84C63.31 108.98 53.61 109.1 41.64 109.1C29.67 109.1 19.97 108.98 19.97 108.84C19.97 108.7 29.67 108.58 41.64 108.58C53.61 108.58 63.31 108.7 63.31 108.84Z" fill="#263238"/>
<path d="M42.56 111.42C42.56 111.56 37.5 111.68 31.26 111.68C25.02 111.68 19.97 111.56 19.97 111.42C19.97 111.28 25.03 111.16 31.26 111.16C37.49 111.16 42.56 111.25 42.56 111.42Z" fill="#263238"/>
<path d="M63.31 116.4H19.97V144.67H63.31V116.4Z" fill="#5E64FF"/>
<path d="M26.24 122C26.24 122.344 26.1379 122.681 25.9468 122.967C25.7556 123.253 25.4838 123.476 25.1658 123.608C24.8479 123.739 24.498 123.774 24.1605 123.707C23.823 123.639 23.513 123.474 23.2696 123.23C23.0263 122.987 22.8605 122.677 22.7934 122.339C22.7262 122.002 22.7607 121.652 22.8924 121.334C23.0241 121.016 23.2472 120.744 23.5333 120.553C23.8194 120.362 24.1558 120.26 24.5 120.26C24.9615 120.26 25.404 120.443 25.7303 120.77C26.0566 121.096 26.24 121.539 26.24 122Z" fill="#FAFAFA"/>
<path d="M60.96 123.46L59.53 122.07L58.24 123.42L58.19 119.37H60.95L60.96 123.46ZM59.53 121.89H59.58L60.83 123.12V119.43H58.33V123.05L59.53 121.89Z" fill="#FAFAFA"/>
<path d="M50.04 121.08C50.04 121.22 45.28 121.34 39.41 121.34C33.54 121.34 28.78 121.22 28.78 121.08C28.78 120.94 33.54 120.82 39.41 120.82C45.28 120.82 50.04 120.94 50.04 121.08Z" fill="#FAFAFA"/>
<path d="M36.98 123.46C34.2576 123.807 31.5023 123.807 28.78 123.46C31.5023 123.113 34.2576 123.113 36.98 123.46Z" fill="#FAFAFA"/>
<path d="M63.31 148.5C63.31 148.65 53.61 148.76 41.64 148.76C29.67 148.76 19.97 148.65 19.97 148.5C19.97 148.35 29.67 148.24 41.64 148.24C53.61 148.24 63.31 148.36 63.31 148.5Z" fill="#263238"/>
<path d="M113.8 116.4H70.46V144.67H113.8V116.4Z" fill="#455A64"/>
<path d="M76.75 122C76.75 122.344 76.6479 122.681 76.4567 122.967C76.2655 123.253 75.9938 123.476 75.6758 123.608C75.3579 123.739 75.008 123.774 74.6705 123.707C74.333 123.639 74.0229 123.474 73.7796 123.23C73.5362 122.987 73.3705 122.677 73.3034 122.339C73.2362 122.002 73.2707 121.652 73.4024 121.334C73.5341 121.016 73.7571 120.744 74.0432 120.553C74.3294 120.362 74.6658 120.26 75.01 120.26C75.4715 120.26 75.914 120.443 76.2403 120.77C76.5666 121.096 76.75 121.539 76.75 122Z" fill="#FAFAFA"/>
<path d="M111.46 123.46L110.03 122.07L108.7 123.42V119.37H111.45L111.46 123.46ZM110.03 121.89L111.29 123.12V119.43H108.78V123.05L110.03 121.89Z" fill="#FAFAFA"/>
<path d="M100.54 121.08C100.54 121.22 95.78 121.34 89.91 121.34C84.04 121.34 79.24 121.25 79.24 121.08C79.24 120.91 83.99 120.82 89.87 120.82C95.75 120.82 100.54 120.94 100.54 121.08Z" fill="#FAFAFA"/>
<path d="M87.47 123.46C84.751 123.807 81.999 123.807 79.28 123.46C81.999 123.113 84.751 123.113 87.47 123.46Z" fill="#FAFAFA"/>
<path d="M113.81 148.5C113.81 148.65 104.1 148.76 92.14 148.76C80.18 148.76 70.46 148.65 70.46 148.5C70.46 148.35 80.17 148.24 92.14 148.24C104.11 148.24 113.81 148.36 113.81 148.5Z" fill="#263238"/>
<path d="M113.24 106.25C113.24 106.39 103.54 106.51 91.57 106.51C79.6 106.51 69.9 106.39 69.9 106.25C69.9 106.11 79.6 105.99 91.57 105.99C103.54 105.99 113.24 106.12 113.24 106.25Z" fill="#263238"/>
<path d="M113.24 108.84C113.24 108.98 103.54 109.1 91.57 109.1C79.6 109.1 69.9 108.98 69.9 108.84C69.9 108.7 79.6 108.58 91.57 108.58C103.54 108.58 113.24 108.7 113.24 108.84Z" fill="#263238"/>
<path d="M92.48 111.42C92.48 111.56 87.42 111.68 81.19 111.68C74.96 111.68 69.89 111.56 69.89 111.42C69.89 111.28 74.95 111.16 81.19 111.16C87.43 111.16 92.48 111.25 92.48 111.42Z" fill="#263238"/>
<g opacity="0.3">
<path d="M23.66 15.7899C26.14 15.3099 28.66 13.5999 29.47 11.3599H13.65V16.2499H13.77C17.04 15.7399 20.41 16.4199 23.66 15.7899Z" fill="white"/>
</g>
</svg>
