<svg width="642" height="642" viewBox="0 0 642 642" fill="none" xmlns="http://www.w3.org/2000/svg">
<g clip-path="url(#clip0_188_13)">
<path d="M0 -0.00012207L0 641.11H641.11V-0.00012207H0Z" fill="white"/>
<path d="M518.79 290.67C508.47 367.67 575.28 404.93 554.09 483.45C538.33 541.84 494 548.72 495.71 597.5C496.27 613.33 501.49 627.71 509.71 641.11H641.11V143.11C590.1 159.83 527.72 224 518.79 290.67Z" fill="#3035A6" fill-opacity="0.04"/>
<path d="M0 511.12C10.62 512.42 20.94 511.31 30 506.35C60.13 489.81 68.29 434.83 61.52 396.35C55.17 360.23 38.52 354.64 42.05 331.58C48.37 290.41 103.85 292.76 120.64 251.84C143.38 196.41 60.1 146.94 80.06 82.84C94.22 37.27 143.43 39.36 154.36 0H0V511.12Z" fill="#3035A7" fill-opacity="0.05"/>
</g>
<defs>
<clipPath id="clip0_188_13">
<rect width="641.11" height="641.11" fill="white"/>
</clipPath>
</defs>
</svg>
