<svg id="visual" viewBox="0 0 900 600" width="900" height="600" xmlns="http://www.w3.org/2000/svg" xmlns:xlink="http://www.w3.org/1999/xlink" version="1.1"><path d="M0 43L6.5 43C13 43 26 43 39 43C52 43 65 43 78 43C91 43 104 43 117.2 42C130.3 41 143.7 39 156.8 39C170 39 183 41 196 42C209 43 222 43 235 43C248 43 261 43 274 42C287 41 300 39 313 38C326 37 339 37 352 37C365 37 378 37 391 37C404 37 417 37 430.2 37C443.3 37 456.7 37 469.8 38C483 39 496 41 509 42C522 43 535 43 548 42C561 41 574 39 587 38C600 37 613 37 626 37C639 37 652 37 665 38C678 39 691 41 704 41C717 41 730 39 743.2 38C756.3 37 769.7 37 782.8 38C796 39 809 41 822 42C835 43 848 43 861 42C874 41 887 39 893.5 38L900 37L900 0L893.5 0C887 0 874 0 861 0C848 0 835 0 822 0C809 0 796 0 782.8 0C769.7 0 756.3 0 743.2 0C730 0 717 0 704 0C691 0 678 0 665 0C652 0 639 0 626 0C613 0 600 0 587 0C574 0 561 0 548 0C535 0 522 0 509 0C496 0 483 0 469.8 0C456.7 0 443.3 0 430.2 0C417 0 404 0 391 0C378 0 365 0 352 0C339 0 326 0 313 0C300 0 287 0 274 0C261 0 248 0 235 0C222 0 209 0 196 0C183 0 170 0 156.8 0C143.7 0 130.3 0 117.2 0C104 0 91 0 78 0C65 0 52 0 39 0C26 0 13 0 6.5 0L0 0Z" fill="#6666c1"></path><path d="M0 85L6.5 86C13 87 26 89 39 89C52 89 65 87 78 87C91 87 104 89 117.2 89C130.3 89 143.7 87 156.8 86C170 85 183 85 196 85C209 85 222 85 235 85C248 85 261 85 274 84C287 83 300 81 313 80C326 79 339 79 352 80C365 81 378 83 391 84C404 85 417 85 430.2 84C443.3 83 456.7 81 469.8 82C483 83 496 87 509 88C522 89 535 87 548 86C561 85 574 85 587 84C600 83 613 81 626 80C639 79 652 79 665 81C678 83 691 87 704 87C717 87 730 83 743.2 81C756.3 79 769.7 79 782.8 80C796 81 809 83 822 84C835 85 848 85 861 84C874 83 887 81 893.5 80L900 79L900 35L893.5 36C887 37 874 39 861 40C848 41 835 41 822 40C809 39 796 37 782.8 36C769.7 35 756.3 35 743.2 36C730 37 717 39 704 39C691 39 678 37 665 36C652 35 639 35 626 35C613 35 600 35 587 36C574 37 561 39 548 40C535 41 522 41 509 40C496 39 483 37 469.8 36C456.7 35 443.3 35 430.2 35C417 35 404 35 391 35C378 35 365 35 352 35C339 35 326 35 313 36C300 37 287 39 274 40C261 41 248 41 235 41C222 41 209 41 196 40C183 39 170 37 156.8 37C143.7 37 130.3 39 117.2 40C104 41 91 41 78 41C65 41 52 41 39 41C26 41 13 41 6.5 41L0 41Z" fill="#5c5cbc"></path><path d="M0 115L6.5 116C13 117 26 119 39 119C52 119 65 117 78 117C91 117 104 119 117.2 119C130.3 119 143.7 117 156.8 116C170 115 183 115 196 115C209 115 222 115 235 115C248 115 261 115 274 114C287 113 300 111 313 110C326 109 339 109 352 110C365 111 378 113 391 114C404 115 417 115 430.2 114C443.3 113 456.7 111 469.8 112C483 113 496 117 509 118C522 119 535 117 548 116C561 115 574 115 587 114C600 113 613 111 626 110C639 109 652 109 665 111C678 113 691 117 704 117C717 117 730 113 743.2 111C756.3 109 769.7 109 782.8 110C796 111 809 113 822 114C835 115 848 115 861 114C874 113 887 111 893.5 110L900 109L900 77L893.5 78C887 79 874 81 861 82C848 83 835 83 822 82C809 81 796 79 782.8 78C769.7 77 756.3 77 743.2 79C730 81 717 85 704 85C691 85 678 81 665 79C652 77 639 77 626 78C613 79 600 81 587 82C574 83 561 83 548 84C535 85 522 87 509 86C496 85 483 81 469.8 80C456.7 79 443.3 81 430.2 82C417 83 404 83 391 82C378 81 365 79 352 78C339 77 326 77 313 78C300 79 287 81 274 82C261 83 248 83 235 83C222 83 209 83 196 83C183 83 170 83 156.8 84C143.7 85 130.3 87 117.2 87C104 87 91 85 78 85C65 85 52 87 39 87C26 87 13 85 6.5 84L0 83Z" fill="#5252b6"></path><path d="M0 151L6.5 152C13 153 26 155 39 155C52 155 65 153 78 153C91 153 104 155 117.2 155C130.3 155 143.7 153 156.8 152C170 151 183 151 196 151C209 151 222 151 235 151C248 151 261 151 274 150C287 149 300 147 313 146C326 145 339 145 352 146C365 147 378 149 391 150C404 151 417 151 430.2 150C443.3 149 456.7 147 469.8 148C483 149 496 153 509 154C522 155 535 153 548 152C561 151 574 151 587 150C600 149 613 147 626 146C639 145 652 145 665 147C678 149 691 153 704 153C717 153 730 149 743.2 147C756.3 145 769.7 145 782.8 146C796 147 809 149 822 150C835 151 848 151 861 150C874 149 887 147 893.5 146L900 145L900 107L893.5 108C887 109 874 111 861 112C848 113 835 113 822 112C809 111 796 109 782.8 108C769.7 107 756.3 107 743.2 109C730 111 717 115 704 115C691 115 678 111 665 109C652 107 639 107 626 108C613 109 600 111 587 112C574 113 561 113 548 114C535 115 522 117 509 116C496 115 483 111 469.8 110C456.7 109 443.3 111 430.2 112C417 113 404 113 391 112C378 111 365 109 352 108C339 107 326 107 313 108C300 109 287 111 274 112C261 113 248 113 235 113C222 113 209 113 196 113C183 113 170 113 156.8 114C143.7 115 130.3 117 117.2 117C104 117 91 115 78 115C65 115 52 117 39 117C26 117 13 115 6.5 114L0 113Z" fill="#4748b1"></path><path d="M0 229L6.5 229C13 229 26 229 39 228C52 227 65 225 78 225C91 225 104 227 117.2 227C130.3 227 143.7 225 156.8 223C170 221 183 219 196 218C209 217 222 217 235 218C248 219 261 221 274 221C287 221 300 219 313 219C326 219 339 221 352 223C365 225 378 227 391 226C404 225 417 221 430.2 220C443.3 219 456.7 221 469.8 224C483 227 496 231 509 230C522 229 535 223 548 222C561 221 574 225 587 225C600 225 613 221 626 220C639 219 652 221 665 223C678 225 691 227 704 227C717 227 730 225 743.2 224C756.3 223 769.7 223 782.8 222C796 221 809 219 822 219C835 219 848 221 861 220C874 219 887 215 893.5 213L900 211L900 143L893.5 144C887 145 874 147 861 148C848 149 835 149 822 148C809 147 796 145 782.8 144C769.7 143 756.3 143 743.2 145C730 147 717 151 704 151C691 151 678 147 665 145C652 143 639 143 626 144C613 145 600 147 587 148C574 149 561 149 548 150C535 151 522 153 509 152C496 151 483 147 469.8 146C456.7 145 443.3 147 430.2 148C417 149 404 149 391 148C378 147 365 145 352 144C339 143 326 143 313 144C300 145 287 147 274 148C261 149 248 149 235 149C222 149 209 149 196 149C183 149 170 149 156.8 150C143.7 151 130.3 153 117.2 153C104 153 91 151 78 151C65 151 52 153 39 153C26 153 13 151 6.5 150L0 149Z" fill="#3c3fac"></path><path d="M0 337L6.5 340C13 343 26 349 39 351C52 353 65 351 78 351C91 351 104 353 117.2 351C130.3 349 143.7 343 156.8 338C170 333 183 329 196 327C209 325 222 325 235 326C248 327 261 329 274 329C287 329 300 327 313 327C326 327 339 329 352 332C365 335 378 339 391 338C404 337 417 331 430.2 331C443.3 331 456.7 337 469.8 339C483 341 496 339 509 338C522 337 535 337 548 338C561 339 574 341 587 340C600 339 613 335 626 333C639 331 652 331 665 333C678 335 691 339 704 341C717 343 730 343 743.2 344C756.3 345 769.7 347 782.8 345C796 343 809 337 822 334C835 331 848 331 861 330C874 329 887 327 893.5 326L900 325L900 209L893.5 211C887 213 874 217 861 218C848 219 835 217 822 217C809 217 796 219 782.8 220C769.7 221 756.3 221 743.2 222C730 223 717 225 704 225C691 225 678 223 665 221C652 219 639 217 626 218C613 219 600 223 587 223C574 223 561 219 548 220C535 221 522 227 509 228C496 229 483 225 469.8 222C456.7 219 443.3 217 430.2 218C417 219 404 223 391 224C378 225 365 223 352 221C339 219 326 217 313 217C300 217 287 219 274 219C261 219 248 217 235 216C222 215 209 215 196 216C183 217 170 219 156.8 221C143.7 223 130.3 225 117.2 225C104 225 91 223 78 223C65 223 52 225 39 226C26 227 13 227 6.5 227L0 227Z" fill="#3035a6"></path><path d="M0 391L6.5 394C13 397 26 403 39 406C52 409 65 409 78 409C91 409 104 409 117.2 406C130.3 403 143.7 397 156.8 393C170 389 183 387 196 385C209 383 222 381 235 381C248 381 261 383 274 383C287 383 300 381 313 381C326 381 339 383 352 386C365 389 378 393 391 393C404 393 417 389 430.2 389C443.3 389 456.7 393 469.8 394C483 395 496 393 509 392C522 391 535 391 548 393C561 395 574 399 587 399C600 399 613 395 626 392C639 389 652 387 665 389C678 391 691 397 704 400C717 403 730 403 743.2 404C756.3 405 769.7 407 782.8 404C796 401 809 393 822 389C835 385 848 385 861 385C874 385 887 385 893.5 385L900 385L900 323L893.5 324C887 325 874 327 861 328C848 329 835 329 822 332C809 335 796 341 782.8 343C769.7 345 756.3 343 743.2 342C730 341 717 341 704 339C691 337 678 333 665 331C652 329 639 329 626 331C613 333 600 337 587 338C574 339 561 337 548 336C535 335 522 335 509 336C496 337 483 339 469.8 337C456.7 335 443.3 329 430.2 329C417 329 404 335 391 336C378 337 365 333 352 330C339 327 326 325 313 325C300 325 287 327 274 327C261 327 248 325 235 324C222 323 209 323 196 325C183 327 170 331 156.8 336C143.7 341 130.3 347 117.2 349C104 351 91 349 78 349C65 349 52 351 39 349C26 347 13 341 6.5 338L0 335Z" fill="#2c339d"></path><path d="M0 421L6.5 424C13 427 26 433 39 436C52 439 65 439 78 439C91 439 104 439 117.2 436C130.3 433 143.7 427 156.8 423C170 419 183 417 196 415C209 413 222 411 235 411C248 411 261 413 274 413C287 413 300 411 313 411C326 411 339 413 352 416C365 419 378 423 391 423C404 423 417 419 430.2 419C443.3 419 456.7 423 469.8 424C483 425 496 423 509 422C522 421 535 421 548 423C561 425 574 429 587 429C600 429 613 425 626 422C639 419 652 417 665 419C678 421 691 427 704 430C717 433 730 433 743.2 434C756.3 435 769.7 437 782.8 434C796 431 809 423 822 419C835 415 848 415 861 415C874 415 887 415 893.5 415L900 415L900 383L893.5 383C887 383 874 383 861 383C848 383 835 383 822 387C809 391 796 399 782.8 402C769.7 405 756.3 403 743.2 402C730 401 717 401 704 398C691 395 678 389 665 387C652 385 639 387 626 390C613 393 600 397 587 397C574 397 561 393 548 391C535 389 522 389 509 390C496 391 483 393 469.8 392C456.7 391 443.3 387 430.2 387C417 387 404 391 391 391C378 391 365 387 352 384C339 381 326 379 313 379C300 379 287 381 274 381C261 381 248 379 235 379C222 379 209 381 196 383C183 385 170 387 156.8 391C143.7 395 130.3 401 117.2 404C104 407 91 407 78 407C65 407 52 407 39 404C26 401 13 395 6.5 392L0 389Z" fill="#283095"></path><path d="M0 445L6.5 448C13 451 26 457 39 460C52 463 65 463 78 463C91 463 104 463 117.2 460C130.3 457 143.7 451 156.8 447C170 443 183 441 196 439C209 437 222 435 235 435C248 435 261 437 274 437C287 437 300 435 313 435C326 435 339 437 352 440C365 443 378 447 391 447C404 447 417 443 430.2 443C443.3 443 456.7 447 469.8 448C483 449 496 447 509 446C522 445 535 445 548 447C561 449 574 453 587 453C600 453 613 449 626 446C639 443 652 441 665 443C678 445 691 451 704 454C717 457 730 457 743.2 458C756.3 459 769.7 461 782.8 458C796 455 809 447 822 443C835 439 848 439 861 439C874 439 887 439 893.5 439L900 439L900 413L893.5 413C887 413 874 413 861 413C848 413 835 413 822 417C809 421 796 429 782.8 432C769.7 435 756.3 433 743.2 432C730 431 717 431 704 428C691 425 678 419 665 417C652 415 639 417 626 420C613 423 600 427 587 427C574 427 561 423 548 421C535 419 522 419 509 420C496 421 483 423 469.8 422C456.7 421 443.3 417 430.2 417C417 417 404 421 391 421C378 421 365 417 352 414C339 411 326 409 313 409C300 409 287 411 274 411C261 411 248 409 235 409C222 409 209 411 196 413C183 415 170 417 156.8 421C143.7 425 130.3 431 117.2 434C104 437 91 437 78 437C65 437 52 437 39 434C26 431 13 425 6.5 422L0 419Z" fill="#242e8c"></path><path d="M0 469L6.5 472C13 475 26 481 39 484C52 487 65 487 78 487C91 487 104 487 117.2 484C130.3 481 143.7 475 156.8 471C170 467 183 465 196 463C209 461 222 459 235 459C248 459 261 461 274 461C287 461 300 459 313 459C326 459 339 461 352 464C365 467 378 471 391 471C404 471 417 467 430.2 467C443.3 467 456.7 471 469.8 472C483 473 496 471 509 470C522 469 535 469 548 471C561 473 574 477 587 477C600 477 613 473 626 470C639 467 652 465 665 467C678 469 691 475 704 478C717 481 730 481 743.2 482C756.3 483 769.7 485 782.8 482C796 479 809 471 822 467C835 463 848 463 861 463C874 463 887 463 893.5 463L900 463L900 437L893.5 437C887 437 874 437 861 437C848 437 835 437 822 441C809 445 796 453 782.8 456C769.7 459 756.3 457 743.2 456C730 455 717 455 704 452C691 449 678 443 665 441C652 439 639 441 626 444C613 447 600 451 587 451C574 451 561 447 548 445C535 443 522 443 509 444C496 445 483 447 469.8 446C456.7 445 443.3 441 430.2 441C417 441 404 445 391 445C378 445 365 441 352 438C339 435 326 433 313 433C300 433 287 435 274 435C261 435 248 433 235 433C222 433 209 435 196 437C183 439 170 441 156.8 445C143.7 449 130.3 455 117.2 458C104 461 91 461 78 461C65 461 52 461 39 458C26 455 13 449 6.5 446L0 443Z" fill="#212b83"></path><path d="M0 601L6.5 601C13 601 26 601 39 601C52 601 65 601 78 601C91 601 104 601 117.2 601C130.3 601 143.7 601 156.8 601C170 601 183 601 196 601C209 601 222 601 235 601C248 601 261 601 274 601C287 601 300 601 313 601C326 601 339 601 352 601C365 601 378 601 391 601C404 601 417 601 430.2 601C443.3 601 456.7 601 469.8 601C483 601 496 601 509 601C522 601 535 601 548 601C561 601 574 601 587 601C600 601 613 601 626 601C639 601 652 601 665 601C678 601 691 601 704 601C717 601 730 601 743.2 601C756.3 601 769.7 601 782.8 601C796 601 809 601 822 601C835 601 848 601 861 601C874 601 887 601 893.5 601L900 601L900 461L893.5 461C887 461 874 461 861 461C848 461 835 461 822 465C809 469 796 477 782.8 480C769.7 483 756.3 481 743.2 480C730 479 717 479 704 476C691 473 678 467 665 465C652 463 639 465 626 468C613 471 600 475 587 475C574 475 561 471 548 469C535 467 522 467 509 468C496 469 483 471 469.8 470C456.7 469 443.3 465 430.2 465C417 465 404 469 391 469C378 469 365 465 352 462C339 459 326 457 313 457C300 457 287 459 274 459C261 459 248 457 235 457C222 457 209 459 196 461C183 463 170 465 156.8 469C143.7 473 130.3 479 117.2 482C104 485 91 485 78 485C65 485 52 485 39 482C26 479 13 473 6.5 470L0 467Z" fill="#1e297b"></path></svg>